<svg width="22" height="22" viewBox="0 0 22 22" fill="none" xmlns="http://www.w3.org/2000/svg">
  <path fill-rule="evenodd" clip-rule="evenodd" d="M11 2C6.02944 2 2 5.58172 2 10C2 12.395 3.14378 14.538 5 16.035V20L9.22222 17.8889C9.79644 17.962 10.39 18 11 18C15.9706 18 20 14.4183 20 10C20 5.58172 15.9706 2 11 2ZM11 4C7.13401 4 4 6.68629 4 10C4 11.7958 4.89543 13.4029 6.34159 14.5247L7 15.0354V17.1111L9.44444 15.8889L10.2036 15.963C10.4656 15.9877 10.7311 16 11 16C14.866 16 18 13.3137 18 10C18 6.68629 14.866 4 11 4ZM8 9H14V11H8V9ZM11 7V13H11V7Z" fill="black"/>
</svg>
